<svg width="65" height="65" viewBox="0 0 65 65" fill="none" xmlns="http://www.w3.org/2000/svg">
  <rect width="65" height="65" rx="10" fill="#0A66C2"/>
  <path d="M41.192 29.56c1.136-1.092 1.7-2.68 1.7-4.764 0-2.268-.744-4.012-2.232-5.192-1.488-1.176-3.644-1.776-6.456-1.776H21v24h14.216c2.856 0 5.08-.752 6.688-2.24 1.604-1.492 2.4-3.536 2.4-6.136 0-2.168-.72-3.896-2.112-5.184zm-13.184-6.2h7.64c1.512 0 2.656.328 3.424 1 1.048.88 1.576 2.216 1.576 4.008 0 1.88-.48 3.256-1.44 4.128-.912.8-2.136 1.2-3.664 1.2h-7.536V23.36zm8.52 16.704h-8.52v-7.616h8.776c1.56 0 2.8.328 3.72 1 .92.68 1.376 1.84 1.376 3.48 0 1.656-.52 2.872-1.56 3.648-.832.632-1.984.976-3.456.976z" fill="#fff"/>
</svg>
