<svg width="65" height="65" viewBox="0 0 65 65" fill="none" xmlns="http://www.w3.org/2000/svg">
  <g fill="#0A66C2">
    <circle cx="32.5" cy="32.5" r="6.5"/>
    <path d="M32.5 9.5c3.75 0 6.71 3.36 8.76 8.55l.67 1.71 1.6-.95c4.22-2.51 7.6-2.95 9.46-1.09s1.42 5.24-1.09 9.46l-.95 1.6 1.71.67c5.19 2.05 8.55 5.01 8.55 8.76s-3.36 6.71-8.55 8.76l-1.71.67.95 1.6c2.51 4.22 2.95 7.6 1.09 9.46s-5.24 1.42-9.46-1.09l-1.6-.95-.67 1.71c-2.05 5.19-5.01 8.55-8.76 8.55s-6.71-3.36-8.76-8.55l-.67-1.71-1.6.95c-4.22 2.51-7.6 2.95-9.46 1.09s-1.42-5.24 1.09-9.46l.95-1.6-1.71-.67c-5.19-2.05-8.55-5.01-8.55-8.76s3.36-6.71 8.55-8.76l1.71-.67-.95-1.6c-2.51-4.22-2.95-7.6-1.09-9.46s5.24-1.42 9.46 1.09l1.6.95.67-1.71c2.05-5.19 5.01-8.55 8.76-8.55m0-2c-4.39 0-8.21 3.88-10.26 9.45l-.52 1.33-1.24-.74C17.53 13.74 12.73 14.33 11.09 15.98c-1.64 1.65-1.25 6.45 3.23 12.9l.74 1.24-1.33.52c-5.57 2.05-9.45 5.87-9.45 10.26s3.88 8.21 9.45 10.26l1.33.52-.74 1.24c-4.48 6.45-4.87 11.25-3.23 12.9 1.64 1.65 6.45 1.25 12.9-3.23l1.24-.74.52 1.33c2.05 5.57 5.87 9.45 10.26 9.45s8.21-3.88 10.26-9.45l.52-1.33 1.24.74c6.45 4.48 11.25 4.87 12.9 3.23 1.65-1.64 1.25-6.45-3.23-12.9l-.74-1.24 1.33-.52c5.57-2.05 9.45-5.87 9.45-10.26s-3.88-8.21-9.45-10.26l-1.33-.52.74-1.24c4.48-6.45 4.87-11.25 3.23-12.9-1.64-1.65-6.45-1.25-12.9 3.23l-1.24.74-.52-1.33c-2.05-5.57-5.87-9.45-10.26-9.45z"/>
    <path d="M32.5 25c3.19 0 6.22.91 8.85 2.56s4.86 4.03 6.34 6.34c1.48 2.31 2.56 5.34 2.56 8.85s-.91 6.22-2.56 8.85c-1.48 2.31-4.03 4.86-6.34 6.34-2.31 1.48-5.34 2.56-8.85 2.56s-6.22-.91-8.85-2.56c-2.31-1.48-4.86-4.03-6.34-6.34-1.48-2.31-2.56-5.34-2.56-8.85s.91-6.22 2.56-8.85c1.48-2.31 4.03-4.86 6.34-6.34 2.31-1.48 5.34-2.56 8.85-2.56m0-2c-3.46 0-6.73 1-9.53 2.88-2.8 1.87-5.18 4.54-6.8 7.72-1.62 3.18-2.47 6.82-2.47 10.41s.85 7.23 2.47 10.41c1.62 3.18 4 5.85 6.8 7.72 2.8 1.87 6.07 2.88 9.53 2.88s6.73-1 9.53-2.88c2.8-1.87 5.18-4.54 6.8-7.72 1.62-3.18 2.47-6.82 2.47-10.41s-.85-7.23-2.47-10.41c-1.62-3.18-4-5.85-6.8-7.72-2.8-1.87-6.07-2.88-9.53-2.88z"/>
  </g>
</svg>
